<?xml version="1.0" encoding="utf-8" ?><svg xmlns="http://www.w3.org/2000/svg" xmlns:xlink="http://www.w3.org/1999/xlink" width="832" height="503" viewBox="0 0 832 503"><clipPath id="cl_5"><rect width="832" height="503"/></clipPath><g clip-path="url(#cl_5)"><path fill="#183050" transform="translate(0 -745)" d="M0 0L832 0L832 627.537L832 1248L0 1248L0 627.502L0 0Z"/><path fill="#FEFEFE" transform="translate(0 -745)" d="M0 627.502L558.14 627.537L740.343 627.519C770.398 627.516 802.048 627.025 832 627.537L832 1248L0 1248L0 627.502Z"/><path fill="#CCAF35" transform="translate(0 -745)" d="M464.739 867.37L559.898 867.293C573.841 867.286 596.511 866.616 609.628 867.524C613.597 872.187 597.259 879.226 597.617 884.855C598.132 892.951 606.003 893.601 612.663 900.898L621.141 903.056C625.206 907.558 639.967 935.411 643.706 942.288L653.672 942.531C657.146 949.444 660.506 956.58 663.979 963.416C668.976 966.225 676.734 969.538 678.139 975.431C678.449 976.733 678.189 979.678 678.193 981.202C680.442 983.736 682.986 986.472 684.997 989.162C684.86 973.971 684.495 957.588 684.841 942.473C693.761 942.338 705.385 942.052 714.237 942.433L714.103 1007.35C714.092 1012.8 713.624 1032.17 714.151 1036.39C723.155 1045.87 721.906 1052.22 722.767 1063.38C726.697 1065.2 736.306 1070.11 739.783 1071.22C736.009 1077.96 725.906 1087.63 724.361 1090.99C718.372 1104.01 724.815 1103.87 713.062 1116.74L714.013 1123.65C711.896 1126.66 707.838 1131.59 706.454 1134.45C706.367 1150.43 707.778 1146.36 702.062 1162.32C697.065 1160.28 678.549 1153.2 673.948 1154.22C667.097 1159.38 678.216 1175.46 669.644 1183.11C664.439 1184.22 659.535 1183.22 658.741 1177.14C658.459 1174.86 658.214 1172.57 658.007 1170.28C641.497 1169.28 511.708 1162.63 506.895 1160.01C503.114 1155.62 498.625 1140.28 498.199 1134.33C494.163 1128.83 492.579 1126.17 493.791 1118.87C494.673 1113.57 496.399 1107.14 497.655 1101.86C487.968 1091.29 491.928 1083.62 495.736 1071.56C496.134 1070.3 495.99 1066.11 495.977 1064.51C497.604 1062.85 503.077 1058.16 503.517 1056.97C502.578 1044.78 502.392 1030.17 501.951 1017.76L499.528 942.494C489.271 942.273 478.263 942.579 467.874 942.517C470.735 942.335 474.145 942.357 477.054 942.298C472.753 917.355 468.648 892.378 464.739 867.37Z"/><path fill="#183050" transform="translate(0 -745)" d="M643.706 942.288L653.672 942.531C657.146 949.444 660.506 956.58 663.979 963.416C668.976 966.225 676.734 969.538 678.139 975.431C678.449 976.733 678.189 979.678 678.193 981.202C680.442 983.736 682.986 986.472 684.997 989.162C684.86 973.971 684.495 957.588 684.841 942.473C693.761 942.338 705.385 942.052 714.237 942.433L714.103 1007.35C714.092 1012.8 713.624 1032.17 714.151 1036.39L714.238 1056.76L680.939 1056.77C668.533 1034.45 656.382 1008.7 646.138 985.362C646.256 1009.3 646.868 1032.58 646.773 1056.77L617.579 1056.78C617.877 1018.72 617.903 980.662 617.657 942.606C626.339 942.473 635.034 942.788 643.706 942.288Z"/><path fill="#CCAF35" transform="translate(0 -745)" d="M663.979 963.416C668.976 966.225 676.734 969.538 678.139 975.431C678.449 976.733 678.189 979.678 678.193 981.202C680.442 983.736 682.986 986.472 684.997 989.162C685.366 996.561 685.608 1003.97 685.721 1011.37C678.563 994.125 672.185 980.288 663.979 963.416Z"/><path fill="#183050" transform="translate(0 -745)" d="M540.525 942.45C552.915 942.901 568.08 942.481 580.697 942.508C591.766 979.914 602.081 1019.04 612.583 1056.76L579.967 1056.75L575.951 1038.25C575.635 1036.25 575.563 1035.61 574.79 1033.75C572.881 1032.29 550.326 1033.14 546.448 1033.2C544.714 1040.99 543.122 1048.94 541.48 1056.76L508.855 1056.8L540.525 942.45Z"/><path fill="#FEFEFE" transform="translate(0 -745)" d="M560.566 964.621C561.668 966.238 565.816 981.412 566.641 984.271C573.564 984.165 580.485 983.984 587.404 983.729C582.379 987.982 575.624 991.667 570.564 996.135C572.878 1002.69 575.154 1009.26 577.39 1015.84C572.524 1011.77 570.207 1008.9 563.962 1009.15L552.82 1009.21C549.936 1011.16 546.619 1013.8 543.786 1015.92L550.87 996.165C547.012 992.878 538.106 987.059 533.628 983.944L554.642 984.208C556.688 977.701 558.663 971.171 560.566 964.621Z"/><path fill="#183050" transform="translate(0 -745)" d="M382.782 942.48L423.016 942.431L441.072 1014.75C447.011 990.638 453.118 966.572 459.393 942.55L467.874 942.517C478.263 942.579 489.271 942.273 499.528 942.494L501.951 1017.76C502.392 1030.17 502.578 1044.78 503.517 1056.97C495.254 1056.33 481.826 1056.75 473.251 1056.76C472.775 1035.33 473.241 1006.17 471.42 985.874C464.984 1008.82 458.774 1033.79 452.905 1056.92C444.286 1056.8 435.667 1056.77 427.048 1056.85C423.737 1040.06 418.788 1023.08 415.273 1006.28C413.918 999.812 412.172 992.195 409.999 985.992C409.112 1009.58 408.845 1033.22 407.882 1056.72C398.101 1056.78 388.319 1056.79 378.538 1056.76C379.972 1019.43 382.205 979.648 382.782 942.48Z"/><path fill="#183050" transform="translate(0 -745)" d="M728.852 942.382L763.327 942.44C774.287 962.56 786.239 990.017 795.234 1010.93C794.88 987.755 794.37 965.846 794.408 942.57C804.136 942.272 813.927 942.433 823.663 942.512C823.748 953.729 824.754 1052.81 823.231 1056.4L821.79 1056.8L790.424 1056.83C777.79 1032.33 767.068 1010.74 755.84 985.632C755.805 987.731 755.85 989.825 755.923 991.923C756.673 1013.56 756.476 1035.19 756.457 1056.84C746.794 1056.71 736.924 1056.81 727.243 1056.8L727.312 980.647C727.298 970.666 726.692 952.583 727.408 943.059L728.852 942.382Z"/><path fill="#183050" transform="translate(0 -745)" d="M60.2472 941.099C75.2791 939.627 88.5467 941.444 102.71 946.394L98.4133 971.856C68.4632 959.919 38.2995 965.432 41.2451 1003.53C41.9331 1012.43 44.2759 1020.55 51.2996 1026.57C58.9952 1033.16 66.8399 1033.19 76.3133 1032.5L76.3535 1014.73L62.7364 1014.76C63.3662 1006.86 63.7111 998.601 64.157 990.665C77.5422 990.722 90.9276 990.689 104.312 990.566L105.149 991.048C105.867 993.865 105.59 1008.24 105.585 1012.14L105.645 1052.47C82.9706 1060.53 49.0087 1062.6 29.0087 1047.56C4.2925 1028.97 1.77974 986.263 19.8446 962.399C29.9439 949.057 44.2122 943.225 60.2472 941.099Z"/><path fill="#183050" transform="translate(0 -745)" d="M190.4 942.382L192.051 942.738C193.326 945.237 191.597 963.983 191.381 968.217L149.279 968.209L149.334 985.545C162.261 985.744 175.617 985.583 188.579 985.596C188.289 994.231 187.951 1002.86 187.563 1011.5L149.235 1011.47L149.293 1031.07L194.743 1031.03C194.628 1036.08 194.385 1041.12 194.013 1046.15C193.86 1049.67 193.503 1053.29 193.203 1056.81L117.816 1056.78L117.928 942.465C142.085 942.618 166.243 942.59 190.4 942.382Z"/><path fill="#183050" transform="translate(0 -745)" d="M286.926 942.476L371.444 942.546L370.373 968.466L344.271 968.42L344.352 1030.91L344.346 1056.87L313.007 1056.8L312.96 968.604C304.058 968.3 294.65 968.505 285.707 968.56L286.926 942.476Z"/><path fill="#183050" transform="translate(0 -745)" d="M199.973 942.546L284.679 942.481C284.508 950.883 283.644 959.781 283.426 968.487L257.272 968.465L257.309 1031.21L257.267 1056.8L226.111 1056.79L226.09 968.634C217.625 968.268 207.236 968.477 198.632 968.432L199.973 942.546Z"/><path fill="#183050" transform="translate(0 -745)" d="M382.215 828.056L404.16 827.978C404.036 836.259 404.673 919.46 403.721 921.754L401.829 922.101L382.215 922.003C382.144 909.057 382.15 896.11 382.233 883.164L350.014 883.131L350.159 922.081L328.246 922.023C327.877 890.95 328.371 859.194 328.267 828.024L350.12 828.015C350.222 840.119 350.247 852.223 350.194 864.327L382.185 864.257L382.215 828.056Z"/><path fill="#183050" transform="translate(0 -745)" d="M111.862 828.048C120.804 828.118 129.747 828.051 138.688 827.849C136.504 831.627 131.74 838.138 129.047 842.068L109.529 870.437C115.666 881.061 121.874 891.643 128.155 902.183C131.375 908.242 136.317 915.986 139.918 922.027C131.391 922.182 122.431 922.072 113.875 922.084C106.92 910.199 99.6514 895.215 92.8854 882.804L85.5892 888.888C85.6614 899.941 85.6326 910.995 85.5027 922.048L63.5191 922.006C64.4278 892.3 63.6565 858.046 63.6259 828.049L85.5359 828.024C85.6222 842.256 85.2943 856.981 85.7299 871.122C96.1321 862.115 104.848 841.208 111.862 828.048Z"/><path fill="#183050" transform="translate(0 -745)" d="M146.437 827.959L204.946 828.03C204.78 833.907 204.372 840.111 204.082 846.011L168.413 845.954C168.367 851.649 168.102 859.296 168.565 864.813L201.781 864.76L200.924 882.934L168.391 882.962L168.299 889.118L168.37 904.127C181.144 904.061 193.917 904.069 206.691 904.152C206.564 910.009 206.184 916.199 205.921 922.079C186.672 922.492 165.863 922.079 146.491 922.063L146.437 827.959Z"/><path fill="#183050" transform="translate(0 -745)" d="M250.787 828.015C273.633 828.116 296.48 828.08 319.326 827.906L318.12 846.255C310.602 846.102 303.082 846.045 295.562 846.084L295.648 898.826L295.672 922.067L273.617 922.085L273.679 846.161C266.007 845.98 257.627 846.184 249.902 846.241C250.293 840.17 250.588 834.094 250.787 828.015Z"/><path fill="#183050" transform="translate(0 -745)" d="M218.759 827.992C226.031 828.044 233.303 828.018 240.574 827.913L240.625 921.995L218.766 922.044L218.759 827.992Z"/><path fill="#183050" transform="translate(0 -745)" d="M312.392 1084.16C318.741 1083.69 323.45 1083.48 329.163 1086.6C345.335 1095.43 345.525 1124.57 329.27 1133.41C327.116 1134.59 325.069 1135.18 322.721 1135.81C289.146 1140.02 283.987 1092.81 312.392 1084.16Z"/><path fill="#FEFEFE" transform="translate(0 -745)" d="M314.493 1094.49C329.543 1093.57 329.814 1110.58 325.49 1120.97C324.639 1123.01 322.905 1124.15 321.091 1125.31C303.892 1127.43 304.243 1101.75 314.493 1094.49Z"/><path fill="#183050" transform="translate(0 -745)" d="M275.467 1084.58L288.162 1084.56C288.224 1100.87 288.711 1119.21 288.189 1135.37L275.399 1135.39L275.416 1115.04L259.374 1115.03L259.232 1135.36L246.271 1135.36L246.344 1084.62L259.191 1084.62L259.234 1103.83L275.398 1103.82L275.467 1084.58Z"/><path fill="#183050" transform="translate(0 -745)" d="M122.329 1084.62L138.563 1084.69C143.177 1097.55 149.104 1121.28 153.099 1135.31L139.948 1135.34L137.261 1124.65C134.791 1124.04 126.535 1124.26 123.498 1124.27C122.797 1127.94 121.872 1131.68 121.019 1135.32L107.944 1135.31C111.407 1120.4 117.992 1099.49 122.329 1084.62Z"/><path fill="#FEFEFE" transform="translate(0 -745)" d="M130.617 1095.49C131.571 1099.9 135.139 1111 133.755 1114.33L131.462 1114.62C129.907 1114.58 127.494 1114.77 126.339 1113.94C126.626 1109.89 129.193 1099.42 130.617 1095.49Z"/><path fill="#183050" transform="translate(0 -745)" d="M346.838 1084.59L359.654 1084.64C359.773 1091.39 357.878 1120.06 362.463 1123.41C380.812 1136.84 375.762 1093.58 375.778 1084.63L388.514 1084.66L388.503 1094.56C388.674 1104.78 390.591 1122.48 383.54 1130.29C376.189 1138.1 360.064 1138.25 352.488 1130.87C345.714 1124.27 347.077 1111.23 346.869 1102.51C346.732 1096.72 346.841 1090.47 346.838 1084.59Z"/><path fill="#183050" transform="translate(0 -745)" d="M435.811 1084.65L468.23 1084.58L467.861 1095.14L448.638 1095.19L448.694 1104.21L466.382 1104.23C466.263 1107.7 466.111 1111.18 465.924 1114.65C462.347 1114.78 451.758 1114.35 449.065 1115.42L448.659 1116.83L448.696 1124.96L469.035 1124.93L468.72 1135.34L435.881 1135.37C436.164 1118.88 435.799 1101.29 435.811 1084.65Z"/><path fill="#183050" transform="translate(0 -745)" d="M191.642 1084.6L223.701 1084.6L223.472 1095.18L204.335 1095.15L204.394 1104.26L221.889 1104.24C221.766 1107.74 221.507 1111.39 221.312 1114.9C217.347 1115 207.317 1113.93 204.648 1115.92L204.389 1118.05C204.343 1120.06 204.019 1123.17 205.157 1124.58C210.033 1125.2 219.434 1124.9 224.688 1124.87L224.389 1135.41L191.492 1135.38C191.853 1118.87 191.581 1101.23 191.642 1084.6Z"/><path fill="#183050" transform="translate(0 -745)" d="M49.7029 1084.2C52.0768 1083.97 54.3844 1084.01 56.7315 1083.96C68.267 1083.7 69.1551 1086 66.2797 1096.21C61.8841 1094.85 48.1212 1091 49.0683 1099.51C52.2492 1104.61 59.7426 1105.27 63.784 1108.61C77.8746 1120.23 68.488 1133.23 54.2712 1136.14C47.4228 1136.71 41.4701 1135.36 35.0076 1133.49C35.7691 1130.26 36.4135 1126.64 37.0711 1123.37C42.2664 1124.87 53.8443 1128.1 57.7835 1122.66C57.8061 1116.58 39.3625 1113.58 36.2092 1102.44C35.1993 1098.87 35.6824 1095.05 37.5473 1091.86C40.2718 1087.17 44.8436 1085.64 49.7029 1084.2Z"/><path fill="#183050" transform="translate(0 -745)" d="M408.601 1084.21C416.383 1083.64 420.652 1083.83 427.941 1086.43L426.216 1096.24C422.091 1095.14 407.746 1090.97 408.708 1099.39C413.912 1107.3 428.759 1105.85 429.793 1118.99C430.644 1129.81 423.421 1133.97 414.225 1136.02C407.143 1136.74 401.356 1135.3 394.699 1133.35C395.438 1130.67 396.077 1126.25 396.578 1123.41C402.025 1125.01 412.443 1128.17 416.597 1123C417.834 1115.33 398.076 1113.23 395.881 1102.89C393.565 1091.99 399.02 1087.27 408.601 1084.21Z"/><path fill="#183050" transform="translate(0 -745)" d="M149.357 1084.64L186.801 1084.59L186.433 1095.31L174.346 1095.43C174.231 1104.48 174.304 1113.7 174.291 1122.77L174.282 1135.35L161.448 1135.34L161.486 1095.4C157.56 1095.2 153.057 1095.27 149.083 1095.23L149.357 1084.64Z"/><path fill="#183050" transform="translate(0 -745)" d="M73.9654 1084.72L110.955 1084.63C110.941 1088.09 110.765 1091.78 110.663 1095.25L98.7063 1095.37L98.7499 1122.86L98.7315 1135.34L85.8606 1135.31L85.819 1095.34L73.6493 1095.16L73.9654 1084.72Z"/></g></svg>