<?xml version="1.0" encoding="utf-8" ?><svg xmlns="http://www.w3.org/2000/svg" xmlns:xlink="http://www.w3.org/1999/xlink" width="832" height="548" viewBox="0 0 832 548"><clipPath id="cl_3"><rect y="-0.00012207031" width="832" height="548"/></clipPath><g clip-path="url(#cl_3)"><path fill="#CCAF36" transform="translate(0 -700)" d="M464.736 867.437C495.459 866.472 528.165 867.703 559.09 867.192C567.01 867.061 603.85 866.655 609.833 867.844C612.046 874.045 595.425 878.823 598.055 887.035C600.05 893.264 608.349 896.832 613.253 900.599C614.669 901.631 619.279 902.584 621.176 903.001C627.026 911.163 638.892 932.794 643.459 942.185L653.775 942.557C657.04 949.624 660.499 956.599 664.147 963.476C673.238 968.232 678.284 969.46 678.493 980.922L685.056 988.828C685.148 974.14 684.054 956.503 684.812 942.445C694.009 942.169 705.05 941.998 714.284 942.35C714.223 953.018 713.111 1033.76 714.171 1036.44C722.559 1046.68 722.124 1050.27 722.863 1063.32C728.533 1066.21 733.822 1068.87 739.622 1071.48C736.256 1076.64 726.228 1087.21 724.799 1090.24C718.175 1104.27 723.847 1103.83 712.963 1117.05L713.952 1123.81C711.823 1126.65 708.096 1131.34 706.377 1134.24C706.591 1147.77 706.673 1149.48 702.08 1162.07C695.551 1159.68 680.387 1153.48 674.256 1154.47C666.371 1159.73 680.931 1183.55 664.876 1184.1C659.77 1184.27 658.376 1173.57 658.183 1170.09L556.95 1164.24C543.061 1163.33 520.096 1162.36 506.742 1159.98C501.36 1150.77 501.42 1144.36 497.957 1135.76C491.989 1120.94 492.938 1120.61 497.026 1105.03L497.869 1101.84C485.988 1087.39 495.101 1080.56 496.523 1064.14C498.78 1061.52 501.722 1059.17 503.639 1056.9C502.214 1045.19 502.147 1026.7 501.773 1014.48L499.569 942.529C496.352 942.481 478.879 942.769 476.964 942.109C473.057 917.62 469.198 891.754 464.736 867.437ZM508.938 1056.73L541.48 1056.71C543.134 1048.9 544.733 1040.88 546.501 1033.11C554.508 1032.87 563.697 1032.2 571.696 1033.11C574.825 1033.47 575.151 1034.59 575.796 1037.31L579.94 1056.73L612.556 1056.71C602.229 1018.57 591.616 980.507 580.718 942.527C567.304 942.707 553.888 942.71 540.473 942.536C530.461 979.61 518.157 1019.81 508.938 1056.73Z"/><path fill="#CCAF36" transform="translate(0 -700)" d="M664.147 963.476C673.238 968.232 678.284 969.46 678.493 980.922L685.056 988.828C685.37 996.405 685.589 1003.99 685.712 1011.57C679.399 995.472 671.443 979.198 664.147 963.476Z"/></g></svg>