<?xml version="1.0" encoding="utf-8" ?><svg xmlns="http://www.w3.org/2000/svg" xmlns:xlink="http://www.w3.org/1999/xlink" width="832" height="548" viewBox="0 0 832 548"><clipPath id="cl_3"><rect y="-0.00012207031" width="832" height="548"/></clipPath><g clip-path="url(#cl_3)"><path fill="#CCAF36" transform="translate(0 -700)" d="M464.736 867.437C495.459 866.472 528.165 867.703 559.09 867.192C567.01 867.061 603.85 866.655 609.833 867.844C612.046 874.045 595.425 878.823 598.055 887.035C600.05 893.264 608.349 896.832 613.253 900.599C614.669 901.631 619.279 902.584 621.176 903.001C627.026 911.163 638.892 932.794 643.459 942.185L653.775 942.557C657.04 949.624 660.499 956.599 664.147 963.476C673.238 968.232 678.284 969.46 678.493 980.922L685.056 988.828C685.148 974.14 684.054 956.503 684.812 942.445C694.009 942.169 705.05 941.998 714.284 942.35C714.223 953.018 713.111 1033.76 714.171 1036.44C722.559 1046.68 722.124 1050.27 722.863 1063.32C728.533 1066.21 733.822 1068.87 739.622 1071.48C736.256 1076.64 726.228 1087.21 724.799 1090.24C718.175 1104.27 723.847 1103.83 712.963 1117.05L713.952 1123.81C711.823 1126.65 708.096 1131.34 706.377 1134.24C706.591 1147.77 706.673 1149.48 702.08 1162.07C695.551 1159.68 680.387 1153.48 674.256 1154.47C666.371 1159.73 680.931 1183.55 664.876 1184.1C659.77 1184.27 658.376 1173.57 658.183 1170.09L556.95 1164.24C543.061 1163.33 520.096 1162.36 506.742 1159.98C501.36 1150.77 501.42 1144.36 497.957 1135.76C491.989 1120.94 492.938 1120.61 497.026 1105.03L497.869 1101.84C485.988 1087.39 495.101 1080.56 496.523 1064.14C498.78 1061.52 501.722 1059.17 503.639 1056.9C502.214 1045.19 502.147 1026.7 501.773 1014.48L499.569 942.529C496.352 942.481 478.879 942.769 476.964 942.109C473.057 917.62 469.198 891.754 464.736 867.437ZM508.938 1056.73L541.48 1056.71C543.134 1048.9 544.733 1040.88 546.501 1033.11C554.508 1032.87 563.697 1032.2 571.696 1033.11C574.825 1033.47 575.151 1034.59 575.796 1037.31L579.94 1056.73L612.556 1056.71C602.229 1018.57 591.616 980.507 580.718 942.527C567.304 942.707 553.888 942.71 540.473 942.536C530.461 979.61 518.157 1019.81 508.938 1056.73Z"/><path fill="#183151" transform="translate(0 -700)" d="M643.459 942.185L653.775 942.557C657.04 949.624 660.499 956.599 664.147 963.476C673.238 968.232 678.284 969.46 678.493 980.922L685.056 988.828C685.148 974.14 684.054 956.503 684.812 942.445C694.009 942.169 705.05 941.998 714.284 942.35C714.223 953.018 713.111 1033.76 714.171 1036.44L714.278 1056.72L680.888 1056.72C667.721 1032.16 657.601 1011.05 646.193 985.538C645.958 1008.86 646.686 1033.2 646.732 1056.72L617.552 1056.73C617.901 1018.7 617.924 980.669 617.62 942.639C626.189 942.67 634.922 942.786 643.459 942.185Z"/><path fill="#CCAF36" transform="translate(0 -700)" d="M664.147 963.476C673.238 968.232 678.284 969.46 678.493 980.922L685.056 988.828C685.37 996.405 685.589 1003.99 685.712 1011.57C679.399 995.472 671.443 979.198 664.147 963.476Z"/><path fill="#183151" transform="translate(0 -700)" d="M540.473 942.536C553.888 942.71 567.304 942.707 580.718 942.527C591.616 980.507 602.229 1018.57 612.556 1056.71L579.94 1056.73L575.796 1037.31C575.151 1034.59 574.825 1033.47 571.696 1033.11C563.697 1032.2 554.508 1032.87 546.501 1033.11C544.733 1040.88 543.134 1048.9 541.48 1056.71L508.938 1056.73C518.157 1019.81 530.461 979.61 540.473 942.536ZM554.434 984.084L533.605 984.024C539.251 988.155 545.162 992.104 550.723 996.201C548.309 1002.92 545.721 1009.83 543.44 1016.57C546.291 1014.37 549.733 1011.54 552.627 1009.51C555.647 1009.4 558.869 1009.23 561.872 1009.24C570.024 1009.6 571.372 1010.56 577.419 1016.06C575.42 1009.32 573.178 1002.87 570.888 996.224C575.734 992.14 583.285 987.424 587.289 983.766C581.329 983.847 572.411 984.223 566.689 983.834C565.838 980.775 561.978 965.774 560.393 964.478L554.434 984.084Z"/><path fill="#183151" transform="translate(0 -700)" d="M476.964 942.109C478.879 942.769 496.352 942.481 499.569 942.529L501.773 1014.48C502.147 1026.7 502.214 1045.19 503.639 1056.9C496.718 1056.06 480.887 1056.54 473.425 1056.57C473.169 1053.35 473.209 1049.84 473.216 1046.59C473.264 1026.17 472.972 1006.13 471.675 985.748C465.346 1003.92 457.724 1037.12 452.909 1056.72C444.273 1056.57 435.635 1056.54 426.998 1056.63C425.363 1046.9 422.448 1035.98 420.155 1026.32C417.06 1012.68 413.732 999.095 410.176 985.57C409.381 992.086 409.356 1004.19 409.165 1011C408.781 1026.2 408.29 1041.41 407.692 1056.61L378.704 1056.55C379.839 1018.39 382.136 980.922 382.883 942.614C396.283 942.629 409.682 942.53 423.08 942.316C428.465 964.906 434.595 992.434 441.036 1014.38C447.524 992.379 453.654 965.074 459.399 942.536C463.124 942.571 473.986 942.928 476.964 942.109Z"/><path fill="#183151" transform="translate(0 -700)" d="M794.429 942.611C804.137 942.408 813.848 942.427 823.556 942.667C823.486 955.395 824.433 1053.71 822.646 1056.39L820.571 1056.58C810.629 1056.48 800.467 1056.61 790.507 1056.64C778.28 1033.12 766.687 1009.28 755.739 985.139C755.752 1008.88 756.441 1032.61 756.367 1056.61C746.861 1056.47 737.084 1056.57 727.555 1056.56C727.686 1019.18 726.68 979.852 727.556 942.677C737.778 942.08 752.812 942.505 763.26 942.497C775.355 964.431 784.804 988.52 795.343 1011.24C795.035 988.309 794.28 965.562 794.429 942.611Z"/><path fill="#183151" transform="translate(0 -700)" d="M60.8688 941.099C74.9014 939.22 89.4334 942.337 102.74 946.378C101.139 954.796 99.6855 963.242 98.3786 971.71C83.1448 965.866 61.8398 961.687 49.1632 974.577C37.205 986.97 38.308 1014.16 50.5442 1025.99C58.0651 1033.26 66.8936 1033.05 76.5111 1032.79L76.4902 1014.63L62.7625 1014.62C63.6372 1008.55 64.0721 997.021 64.2814 990.856C76.6862 990.554 90.0692 990.789 102.552 990.772C104.423 990.781 103.858 990.52 105.231 991.457C105.754 997.614 105.481 1007.19 105.478 1013.68L105.443 1052.51C99.067 1054.57 92.5408 1056.13 85.9231 1057.17C67.4363 1059.97 44.3614 1058.78 28.9913 1047.21C4.50706 1028.78 1.708 986.085 19.8232 962.385C30.3141 948.659 44.4254 943.463 60.8688 941.099Z"/><path fill="#183151" transform="translate(0 -700)" d="M118.005 942.595L192.286 942.581C192.532 950.316 191.689 960.288 191.291 968.241C177.287 968.147 163.283 968.128 149.279 968.186L149.285 985.633C162.2 985.891 175.502 985.74 188.448 985.742L187.59 1011.48C174.824 1011.4 162.059 1011.39 149.293 1011.44L149.3 1018.57L149.308 1031.21L194.543 1031.07C194.545 1039.22 193.889 1048.43 193.48 1056.63L118.041 1056.57L118.005 942.595Z"/><path fill="#183151" transform="translate(0 -700)" d="M308.187 942.387C329.135 942.661 350.33 942.531 371.297 942.54L370.305 968.381L344.236 968.23L344.319 1051.48C344.373 1053.4 344.266 1054.43 344.044 1056.35C341.365 1056.94 317.583 1056.6 313.252 1056.58L313.127 968.358C304.232 968.143 294.695 968.305 285.749 968.317C286.259 959.718 286.627 951.112 286.851 942.501C293.963 942.523 301.075 942.485 308.187 942.387Z"/><path fill="#183151" transform="translate(0 -700)" d="M200.054 942.635L284.764 942.546C284.56 950.718 283.718 959.931 283.4 968.349L257.18 968.28L257.207 1030.15L257.185 1056.63L226.248 1056.55L226.199 968.346C217.419 968.093 207.663 968.276 198.808 968.281C199.519 960.024 199.737 950.971 200.054 942.635Z"/><path fill="#183151" transform="translate(0 -700)" d="M328.222 828.072L350.166 828.024C350.256 840.097 350.279 852.171 350.233 864.244C360.724 864.03 371.711 864.168 382.241 864.145C382.381 852.251 382.217 840.035 382.197 828.115L404.157 828.049C403.796 852.58 404.351 877.222 404.095 901.763C404.026 908.376 404.315 915.474 403.383 922.007L382.383 921.936L382.27 882.804C371.763 883.102 360.453 882.918 349.885 882.923L349.995 921.999L328.313 921.959C327.669 890.858 328.567 859.291 328.222 828.072Z"/><path fill="#183151" transform="translate(0 -700)" d="M111.781 828.053C120.488 828.239 129.821 828.072 138.579 828.052C132.381 838.524 116.726 859.722 109.452 870.232C115.105 878.93 122.496 892.76 128.072 902.153C131.501 908.495 135.93 915.611 139.63 921.897C131.208 922.043 122.375 921.924 113.921 921.931C106.704 908.848 99.9322 895.565 92.8182 882.421C90.7969 884.303 87.6977 886.674 85.491 888.473L85.3991 921.964C78.3507 921.745 70.7338 921.929 63.6425 921.971C64.0036 890.672 63.9651 859.37 63.527 828.072L85.5248 828.069C85.3788 842.605 85.3672 857.143 85.4899 871.68C96.5099 860.546 104.731 842.237 111.781 828.053Z"/><path fill="#183151" transform="translate(0 -700)" d="M146.41 828.087L204.8 828.076C204.645 833.949 204.351 839.934 204.124 845.815C192.225 845.731 180.325 845.736 168.425 845.831C168.196 852.197 168.312 858.687 168.359 865.067C179.15 864.68 190.892 864.832 201.759 864.784C201.441 870.78 201.19 876.78 201.007 882.782C190.823 882.357 178.653 882.67 168.428 882.9C168.388 884.781 168.416 886.733 168.415 888.621L168.359 904.263L206.628 904.264L205.921 922.063L146.831 921.986C146.09 912.003 146.457 897.93 146.445 887.612L146.41 828.087Z"/><path fill="#183151" transform="translate(0 -700)" d="M250.713 828.086L319.22 828C318.799 834.123 318.428 840.249 318.11 846.378C310.708 845.905 303.001 846.005 295.563 845.989L295.553 897.305L295.561 922.032L273.708 922.026L273.725 845.969C265.895 845.862 258.064 845.922 250.236 846.15L250.713 828.086Z"/><path fill="#183151" transform="translate(0 -700)" d="M218.817 828.145C225.928 827.952 233.497 828.042 240.646 828.002L240.626 921.949C233.787 921.642 225.804 921.827 218.882 921.824L218.817 828.145Z"/><path fill="#183151" transform="translate(0 -700)" d="M312.206 1084.23C335.957 1082.2 347.077 1101.27 338.48 1123.19C335.995 1129.53 329.573 1133.38 323.243 1135.49C291.662 1140.69 281.856 1095.53 312.206 1084.23ZM321.065 1125.52C331.29 1117.6 331.167 1095.12 316.427 1094.43C315.689 1094.39 314.949 1094.39 314.211 1094.42C304.887 1104.79 303.29 1125.93 321.065 1125.52Z"/><path fill="#183151" transform="translate(0 -700)" d="M275.539 1084.72L288.244 1084.49C288.292 1089.95 289.061 1133.26 287.588 1135.24C283.582 1135.07 279.554 1135.2 275.544 1135.28L275.529 1114.97C270.392 1114.55 264.516 1114.7 259.3 1114.71L259.155 1135.25L246.441 1135.25C246.096 1118.82 246.349 1101.14 246.445 1084.7L259.126 1084.7L259.12 1104.1L275.502 1103.96L275.539 1084.72Z"/><path fill="#183151" transform="translate(0 -700)" d="M122.48 1084.84L138.496 1084.75C143.794 1101.08 148.352 1118.6 152.848 1135.2L139.919 1135.3L137.297 1124.58C135.837 1124.13 126.087 1124.07 123.533 1123.88L120.977 1135.31C116.74 1135.12 112.277 1135.12 108.019 1135.05C112.461 1118.21 117.283 1101.47 122.48 1084.84ZM130.011 1114.81L133.526 1114.26C135.004 1111.77 131.66 1098.87 130.45 1095.99C128.943 1100.7 125.694 1108.95 126.739 1113.64C128.02 1114.92 127.757 1114.51 130.011 1114.81Z"/><path fill="#183151" transform="translate(0 -700)" d="M376.011 1084.76L388.41 1084.67L388.437 1094.59C388.886 1105.39 390.329 1121.91 383.125 1130.39C375.785 1138.24 359.741 1137.79 352.425 1130.36C345.512 1123.34 347.075 1109.97 346.94 1100.91C346.862 1095.66 346.997 1090.04 347.023 1084.73L359.566 1084.68C359.372 1092.52 358.031 1119.14 362.05 1122.76C380.491 1139.37 376.136 1089.2 376.011 1084.76Z"/><path fill="#183151" transform="translate(0 -700)" d="M435.865 1084.67C446.398 1084.88 457.516 1084.71 468.096 1084.73L467.578 1095.02C461.247 1095.03 454.917 1095.01 448.587 1094.95L448.638 1104.22L466.36 1104.17L466.152 1114.95C461.082 1114.72 454.075 1114.28 449.25 1115.38L448.784 1116.39L448.725 1125.01L468.879 1124.84L468.677 1135.34L435.908 1135.4L435.865 1084.67Z"/><path fill="#183151" transform="translate(0 -700)" d="M191.736 1084.63C201.398 1085.04 213.72 1084.7 223.591 1084.71C223.61 1088.06 223.454 1091.68 223.375 1095.05L204.258 1094.97L204.368 1104.26L221.821 1104.25L221.346 1115.11C217.329 1114.93 207.855 1114.02 204.623 1115.94L204.215 1117.57C204.233 1119.65 204.103 1123.09 205.468 1124.58C209.537 1125.26 220.124 1124.86 224.735 1124.79L224.305 1135.26C213.487 1135.18 202.668 1135.16 191.85 1135.2C191.384 1119.22 191.753 1100.78 191.736 1084.63Z"/><path fill="#183151" transform="translate(0 -700)" d="M50.3106 1084.2C61.6487 1083.75 70.0987 1081.34 66.336 1095.99C61.9299 1094.95 50.5705 1091.52 49.266 1097.93C50.8294 1102.84 58.8462 1105.42 62.917 1108.4C78.7914 1120 68.402 1133.69 52.6398 1136.1C45.5187 1136.07 41.8815 1135.09 35.077 1133.41C35.7851 1130.09 36.357 1126.62 36.957 1123.27C42.4955 1124.84 52.8748 1128.23 57.6339 1122.41C58.3022 1121.59 56.4547 1120.61 55.6376 1119.96C48.7059 1114.44 38.9858 1110.56 36.105 1101.44C32.7505 1091.23 41.9235 1086.28 50.3106 1084.2Z"/><path fill="#183151" transform="translate(0 -700)" d="M409.177 1084.2C417.449 1083.97 419.871 1084.15 427.842 1086.38L426.157 1096.24C424.581 1095.81 422.993 1095.41 421.396 1095.05C416.859 1094.06 412.196 1093.76 408.1 1096.39C406.454 1102.87 428.505 1107.25 429.61 1117.51C430.953 1129.98 424.66 1133.13 413.684 1135.94C405.638 1136.11 402.437 1135.21 394.805 1133.28L396.664 1123.37C401.046 1124.88 413.701 1127.86 417.105 1123.31C416.988 1116.47 397.724 1111.56 395.773 1102.16C393.586 1091.62 399.836 1086.89 409.177 1084.2Z"/><path fill="#183151" transform="translate(0 -700)" d="M149.4 1084.69L186.684 1084.69L186.455 1095.26L174.269 1095.3L174.221 1121.71L174.246 1135.27L161.571 1135.27C161.639 1121.92 161.639 1108.57 161.572 1095.22L149.325 1095.03L149.4 1084.69Z"/><path fill="#183151" transform="translate(0 -700)" d="M73.9497 1084.71C85.9358 1084.95 98.6864 1084.72 110.736 1084.73L110.443 1095.12C106.495 1095.08 102.547 1095.02 98.5993 1094.92L98.6018 1122.77L98.5754 1135.21L85.9691 1135.18L85.9898 1095.07L73.7759 1094.87L73.9497 1084.71Z"/></g></svg>